<?xml version="1.0" standalone="no"?>
<!DOCTYPE svg PUBLIC "-//W3C//DTD SVG 20010904//EN"
 "http://www.w3.org/TR/2001/REC-SVG-20010904/DTD/svg10.dtd">
<svg version="1.0" xmlns="http://www.w3.org/2000/svg"
 width="618.000000pt" height="618.000000pt" viewBox="0 0 618.000000 618.000000"
 preserveAspectRatio="xMidYMid meet">
<metadata>
Created by potrace 1.11, written by Peter Selinger 2001-2013
</metadata>
<g transform="translate(0.000000,618.000000) scale(0.100000,-0.100000)"
fill="#000000" stroke="none">
<path d="M2210 5988 c-93 -9 -222 -46 -320 -92 -74 -35 -150 -76 -160 -86 -3
-3 -18 -14 -35 -24 -16 -11 -34 -23 -40 -28 -5 -5 -34 -26 -64 -48 -62 -45
-188 -158 -276 -245 -60 -61 -91 -95 -175 -195 -25 -30 -56 -66 -70 -80 -37
-40 -83 -95 -100 -120 -13 -20 -33 -45 -58 -76 -5 -5 -14 -20 -21 -31 -6 -12
-17 -27 -23 -35 -23 -24 -138 -198 -138 -208 0 -5 -4 -10 -9 -10 -5 0 -11 -8
-15 -17 -3 -10 -17 -36 -31 -58 -14 -22 -31 -51 -37 -65 -7 -14 -18 -33 -26
-42 -9 -10 -12 -18 -9 -18 4 0 -5 -16 -18 -36 -14 -20 -25 -43 -25 -50 0 -8
-4 -14 -10 -14 -5 0 -10 -9 -10 -20 0 -11 -5 -20 -11 -20 -5 0 -7 -4 -4 -10 3
-5 1 -10 -5 -10 -6 0 -8 -4 -5 -10 3 -5 1 -10 -4 -10 -6 0 -11 -5 -11 -11 0
-5 -10 -31 -22 -57 -12 -26 -22 -49 -23 -52 -1 -3 -9 -23 -19 -45 -10 -22 -19
-47 -21 -56 -2 -9 -8 -25 -13 -35 -9 -16 -18 -37 -27 -64 -1 -3 -5 -13 -9 -22
-4 -9 -9 -25 -11 -35 -2 -10 -4 -19 -5 -20 -2 -2 -4 -7 -5 -13 -1 -5 -3 -11
-5 -12 -1 -2 -3 -10 -5 -18 -2 -8 -6 -24 -9 -35 -14 -53 -35 -138 -42 -175 -3
-14 -9 -43 -14 -65 -28 -128 -31 -394 -6 -550 38 -228 182 -552 307 -690 10
-11 28 -31 40 -45 53 -63 124 -132 210 -205 45 -38 170 -126 192 -135 26 -12
60 -32 67 -41 12 -14 291 -144 332 -154 l27 -7 -2 -91 c-2 -51 1 -119 5 -152
5 -33 10 -73 12 -90 24 -172 168 -464 312 -630 44 -51 150 -159 183 -185 17
-14 40 -32 51 -41 11 -9 36 -27 55 -40 19 -13 35 -27 35 -31 0 -5 7 -8 15 -8
8 0 15 -4 15 -10 0 -5 7 -10 15 -10 8 0 15 -4 15 -9 0 -5 8 -11 18 -15 9 -3
26 -11 37 -18 35 -22 65 -38 70 -39 2 0 33 -15 69 -34 35 -18 67 -31 70 -28 3
4 6 1 6 -5 0 -7 3 -11 8 -10 4 1 34 -8 67 -21 33 -13 71 -25 84 -27 14 -3 28
-7 33 -10 4 -3 17 -7 28 -10 11 -2 30 -6 43 -9 12 -3 33 -7 47 -10 14 -3 35
-7 47 -9 88 -18 303 -24 406 -11 181 22 398 89 572 175 207 102 339 196 489
346 74 73 88 89 146 164 19 25 43 54 52 64 10 11 18 25 18 32 0 7 4 14 8 16
17 7 140 237 146 272 1 6 4 16 7 21 4 6 10 24 14 40 5 17 9 32 10 35 16 52 25
93 30 130 3 25 8 54 10 65 2 11 4 39 4 63 1 25 6 44 14 47 269 90 543 231 707
363 98 79 220 201 260 262 8 12 25 34 37 48 13 15 23 30 23 33 0 3 9 16 20 29
11 13 20 29 20 36 0 7 4 14 8 16 9 3 82 149 86 170 1 7 8 23 14 36 7 12 10 22
6 22 -3 0 -2 6 4 12 5 7 19 44 31 82 21 67 26 88 37 156 3 19 7 37 9 40 5 8
17 175 18 235 0 43 -9 166 -18 255 -12 101 -85 369 -137 500 -108 271 -285
595 -475 870 -25 35 -165 220 -188 248 -11 13 -29 34 -40 46 -11 12 -40 46
-65 76 -84 100 -278 287 -378 365 -14 11 -40 32 -58 48 -17 15 -35 27 -38 27
-4 0 -17 9 -29 21 -12 11 -31 25 -42 30 -24 11 -58 32 -65 40 -3 3 -36 20 -75
38 -38 18 -82 39 -97 47 -16 8 -28 12 -28 8 0 -3 -6 -2 -13 4 -7 6 -28 14 -47
17 -18 3 -36 8 -40 10 -3 2 -20 7 -36 10 -143 28 -329 27 -449 -4 -156 -41
-316 -123 -463 -239 -45 -36 -48 -37 -66 -19 -7 6 -28 23 -46 37 -18 14 -39
31 -46 38 -7 6 -18 12 -24 12 -6 0 -13 7 -16 15 -4 8 -12 15 -19 15 -7 0 -15
3 -17 8 -5 11 -110 78 -136 86 -12 4 -22 12 -22 17 0 6 -4 7 -10 4 -5 -3 -10
-2 -10 2 0 7 -49 30 -80 38 -3 1 -18 7 -35 14 -74 32 -148 49 -245 57 -104 9
-140 9 -220 2z m185 -521 c63 -16 201 -82 236 -113 8 -8 19 -14 23 -14 4 0 12
-5 19 -10 7 -6 25 -21 41 -34 l29 -24 -44 -39 c-53 -46 -317 -309 -341 -341
-10 -12 -18 -27 -18 -32 0 -6 -4 -10 -9 -10 -5 0 -19 -17 -32 -37 -32 -52 -88
-163 -83 -163 3 0 -3 -11 -12 -25 -9 -14 -13 -25 -10 -25 4 0 -1 -11 -10 -25
-9 -14 -13 -25 -10 -25 4 0 2 -9 -4 -19 -29 -55 -32 -207 -5 -296 9 -33 19
-64 20 -70 26 -91 98 -224 174 -322 39 -50 133 -153 208 -228 l137 -137 -31
-27 c-16 -14 -46 -39 -65 -56 -175 -150 -364 -334 -578 -564 -63 -68 -134
-143 -158 -166 -23 -24 -42 -46 -42 -50 0 -3 -9 -15 -20 -27 -11 -12 -20 -28
-20 -35 0 -7 -4 -13 -10 -13 -5 0 -10 -7 -10 -15 0 -8 -3 -15 -7 -15 -5 0 -21
-21 -38 -48 -16 -26 -38 -56 -47 -66 -10 -11 -18 -26 -18 -33 0 -7 -4 -13 -8
-13 -5 0 -19 -20 -31 -45 l-22 -45 -30 15 c-16 9 -29 13 -29 10 0 -3 -20 6
-45 21 -25 14 -45 23 -45 18 0 -4 -9 1 -20 11 -11 10 -20 15 -20 12 0 -4 -16
5 -36 18 -20 14 -43 25 -50 25 -8 0 -14 5 -14 10 0 6 -6 10 -13 10 -8 0 -24 9
-37 20 -13 11 -26 20 -30 20 -3 0 -15 8 -26 18 -10 9 -37 30 -59 47 -164 122
-309 334 -355 517 -28 112 -40 308 -25 388 2 14 7 44 9 65 2 22 7 47 10 55 3
8 8 26 10 40 8 42 15 71 21 90 3 10 8 29 11 42 7 32 9 39 22 71 7 16 12 34 12
41 0 6 5 17 12 24 7 7 8 12 4 12 -5 0 -2 10 6 23 8 12 27 54 42 92 15 39 32
76 38 83 6 6 8 12 5 12 -8 0 89 183 137 258 15 24 30 51 34 60 3 9 10 22 14
27 5 6 36 53 71 105 34 52 65 97 70 98 4 2 7 10 7 17 0 7 3 15 8 17 4 2 33 37
64 78 31 41 70 89 85 106 15 18 48 55 73 84 105 121 194 214 262 273 29 25 67
57 83 71 50 44 165 118 236 153 105 51 207 69 284 50z m1555 -51 c51 -10 66
-15 118 -35 53 -21 184 -99 190 -113 2 -4 8 -8 13 -8 6 0 24 -13 42 -30 18
-16 35 -30 39 -30 22 0 287 -267 390 -394 10 -12 24 -28 31 -36 25 -27 168
-223 222 -305 83 -126 250 -432 306 -562 55 -130 107 -292 135 -423 19 -90 26
-338 12 -415 -16 -84 -19 -99 -30 -119 -6 -12 -11 -23 -11 -26 2 -20 -77 -180
-89 -180 -4 0 -8 -5 -8 -11 0 -6 -6 -16 -12 -23 -7 -8 -20 -24 -28 -36 -37
-56 -174 -179 -270 -243 -117 -77 -176 -109 -300 -160 -140 -57 -122 -62 -180
55 -43 85 -146 248 -169 268 -3 3 -19 25 -36 50 -25 39 -87 120 -120 156 -5 7
-35 40 -65 75 -68 79 -328 339 -439 439 -46 41 -97 89 -115 105 -18 17 -45 41
-61 53 l-27 24 100 101 c56 56 111 114 124 128 62 70 75 86 81 102 3 9 11 17
17 17 5 0 10 6 10 14 0 8 4 16 9 18 24 9 151 250 176 335 44 151 30 312 -45
502 -36 94 -111 226 -144 256 -6 6 -31 37 -56 70 -57 77 -63 83 -142 167 -38
38 -68 73 -68 77 0 7 94 64 166 99 44 23 170 52 194 46 8 -2 26 -5 40 -8z
m-617 -696 c34 -41 67 -81 74 -88 7 -7 13 -17 13 -21 0 -4 8 -16 18 -27 10
-10 30 -46 45 -78 23 -47 28 -71 26 -120 -1 -34 -6 -67 -12 -73 -5 -7 -6 -13
-2 -13 4 0 2 -7 -5 -15 -7 -8 -9 -15 -6 -15 9 0 -46 -81 -98 -145 -22 -27 -93
-104 -157 -169 -115 -118 -117 -120 -140 -104 -32 20 -245 232 -289 287 -19
24 -40 48 -45 55 -6 6 -28 39 -49 74 -28 44 -39 73 -38 100 0 54 5 82 14 82 4
0 8 6 8 13 0 33 192 247 337 376 116 102 98 99 176 23 38 -37 96 -101 130
-142z m-118 -1695 c37 -33 84 -73 103 -90 39 -32 221 -207 336 -320 39 -39 98
-102 131 -140 33 -39 65 -75 70 -81 6 -6 19 -23 30 -38 11 -16 32 -44 47 -64
15 -21 31 -42 35 -47 5 -6 24 -33 43 -60 19 -28 38 -51 42 -53 13 -6 9 -42 -4
-43 -20 -2 -51 -7 -78 -13 -31 -6 -163 -23 -245 -31 -33 -4 -76 -8 -95 -10
-213 -23 -729 -23 -960 0 -19 1 -68 6 -108 10 -41 3 -82 8 -91 10 -10 2 -42 6
-72 10 -30 3 -67 9 -84 11 -16 3 -41 7 -55 9 -21 2 -84 14 -112 21 -5 1 -13 2
-20 3 -7 1 -5 8 5 19 10 10 17 24 17 30 0 7 5 12 10 12 6 0 10 7 10 15 0 8 4
15 8 15 5 0 15 12 23 28 15 30 78 110 124 158 17 17 71 75 120 128 85 93 108
117 216 232 25 27 83 83 129 124 45 41 95 86 110 100 52 47 163 145 178 156
11 8 21 5 42 -15 15 -14 58 -53 95 -86z m-1165 -1410 c123 -26 263 -48 375
-60 33 -4 71 -8 85 -11 14 -2 57 -6 95 -10 39 -3 80 -7 91 -9 150 -24 890 -24
1034 -1 14 3 59 7 100 10 82 6 284 33 313 42 13 4 16 1 13 -18 -3 -13 -5 -24
-7 -25 -1 -2 -2 -6 -4 -10 -19 -71 -110 -231 -171 -302 -56 -65 -180 -183
-248 -235 -150 -115 -391 -218 -546 -234 -99 -10 -238 -5 -320 13 -90 19 -99
22 -162 44 -66 23 -231 102 -236 114 -2 4 -8 7 -13 7 -9 0 -36 19 -127 88 -54
40 -172 162 -216 221 -81 110 -145 271 -146 364 0 30 3 30 90 12z"/>
</g>
</svg>
