<?xml version="1.0" standalone="no"?>
<!DOCTYPE svg PUBLIC "-//W3C//DTD SVG 20010904//EN"
 "http://www.w3.org/TR/2001/REC-SVG-20010904/DTD/svg10.dtd">
<svg version="1.0" xmlns="http://www.w3.org/2000/svg"
 width="400.000000pt" height="400.000000pt" viewBox="0 0 400.000000 400.000000"
 preserveAspectRatio="xMidYMid meet">
<metadata>
Created by potrace 1.11, written by Peter Selinger 2001-2013
</metadata>
<g transform="translate(0.000000,400.000000) scale(0.100000,-0.100000)"
fill="#000000" stroke="none">
<path d="M1887 3394 c-1 -1 -40 -4 -87 -8 -115 -9 -204 -20 -254 -31 -12 -3
-32 -7 -46 -9 -14 -3 -35 -7 -46 -10 -12 -2 -38 -7 -59 -10 -20 -4 -41 -8 -45
-11 -5 -3 -48 -17 -97 -30 -48 -14 -95 -28 -103 -32 -8 -3 -17 -7 -20 -7 -19
-4 -185 -76 -230 -99 -82 -43 -164 -90 -170 -96 -3 -3 -39 -28 -80 -56 -83
-56 -269 -236 -315 -305 -16 -25 -32 -47 -35 -50 -18 -16 -111 -190 -102 -190
4 0 2 -4 -3 -8 -16 -11 -63 -168 -79 -258 -18 -112 -13 -286 14 -414 12 -58
25 -109 30 -115 4 -5 13 -28 20 -50 7 -22 20 -53 28 -70 9 -16 16 -32 17 -35
1 -9 88 -154 99 -166 6 -7 20 -24 31 -40 85 -118 259 -275 406 -365 30 -19 64
-40 75 -47 53 -34 273 -134 324 -147 3 -1 12 -4 20 -8 34 -14 118 -39 175 -53
108 -27 132 -32 220 -45 39 -6 81 -13 95 -15 186 -29 538 -21 725 17 28 5 66
12 85 15 214 33 524 154 735 287 162 103 328 252 423 382 29 39 56 75 62 82 5
7 10 16 10 22 0 5 3 11 8 13 19 8 121 242 138 315 27 124 35 208 31 328 -3 72
-8 141 -11 155 -4 14 -9 38 -11 53 -3 16 -19 67 -35 113 -89 257 -277 485
-540 656 -95 62 -260 147 -332 172 -26 8 -56 20 -65 25 -18 9 -159 52 -218 67
-16 4 -34 8 -40 10 -5 1 -21 4 -35 7 -14 3 -36 8 -50 11 -34 8 -77 15 -125 22
-22 3 -53 7 -70 10 -80 12 -457 27 -468 18z m343 -988 c14 -3 59 -13 100 -22
182 -39 373 -144 417 -228 14 -27 13 -30 -19 -63 -18 -19 -64 -52 -102 -74
-64 -37 -234 -100 -301 -113 -16 -2 -59 -10 -95 -17 -73 -14 -388 -18 -465 -5
-41 6 -120 23 -195 41 -24 6 -130 45 -148 55 -9 5 -24 11 -32 15 -36 14 -62
33 -120 86 -28 26 -28 27 -11 55 72 119 348 249 570 271 31 3 58 7 60 9 6 5
312 -3 341 -10z"/>
</g>
</svg>
