<?xml version="1.0" standalone="no"?>
<!DOCTYPE svg PUBLIC "-//W3C//DTD SVG 20010904//EN"
 "http://www.w3.org/TR/2001/REC-SVG-20010904/DTD/svg10.dtd">
<svg version="1.0" xmlns="http://www.w3.org/2000/svg"
 width="1278.000000pt" height="1278.000000pt" viewBox="0 0 1278.000000 1278.000000"
 preserveAspectRatio="xMidYMid meet">
<metadata>
Created by potrace 1.11, written by Peter Selinger 2001-2013
</metadata>
<g transform="translate(0.000000,1278.000000) scale(0.100000,-0.100000)"
fill="#000000" stroke="none">
<path d="M5365 10618 c-463 -16 -936 -71 -1325 -154 -485 -103 -871 -256
-1173 -465 -201 -140 -256 -187 -371 -319 -227 -261 -266 -321 -391 -612 -101
-234 -126 -328 -159 -603 -31 -254 -32 -345 -5 -596 28 -268 67 -441 171 -759
73 -224 259 -642 493 -1110 203 -405 354 -768 432 -1040 73 -254 108 -467 133
-820 12 -178 31 -332 66 -545 52 -315 218 -694 407 -929 114 -141 261 -272
467 -413 454 -312 806 -429 1518 -503 687 -71 1371 54 1993 366 571 286 1038
769 1233 1276 69 181 159 596 175 812 16 220 -13 425 -120 850 -16 65 -29 122
-27 126 2 4 75 70 163 147 416 364 900 911 1215 1371 284 415 452 746 545
1077 66 233 79 333 72 579 l-4 181 -52 184 c-58 207 -78 250 -222 471 -86 131
-110 159 -250 292 -183 174 -196 185 -409 316 -400 246 -960 438 -1705 586
-885 175 -1979 265 -2870 234z m1770 -2143 c462 -15 963 -86 1350 -192 238
-64 494 -169 479 -196 -64 -107 -250 -307 -589 -632 -266 -255 -295 -284 -559
-552 -97 -99 -174 -169 -180 -166 -6 4 -69 50 -141 103 -126 93 -413 280 -718
469 -372 230 -670 441 -931 659 -154 128 -439 392 -432 399 16 16 477 76 771
99 106 8 660 22 725 18 25 -2 126 -6 225 -9z"/>
</g>
</svg>
